<svg width="152" height="42" viewBox="0 0 152 42" fill="none" xmlns="http://www.w3.org/2000/svg">
<path d="M135.417 41.1V25H139.051L149.286 36.5L148.665 36.385C148.573 35.833 148.504 35.3117 148.458 34.821C148.412 34.315 148.366 33.8243 148.32 33.349C148.289 32.8737 148.259 32.406 148.228 31.946C148.213 31.486 148.205 31.0107 148.205 30.52C148.205 30.0293 148.205 29.5157 148.205 28.979V25H152V41.1H148.32L137.717 29.232L138.752 29.393C138.813 29.8377 138.867 30.2593 138.913 30.658C138.959 31.0413 138.997 31.4247 139.028 31.808C139.074 32.1913 139.112 32.5823 139.143 32.981C139.174 33.3643 139.189 33.786 139.189 34.246C139.204 34.6907 139.212 35.1813 139.212 35.718V41.1H135.417Z" fill="currentColor"/>
<path d="M115.42 41.1L122.688 25H126.207L133.452 41.1H129.45L125.448 32.153C125.295 31.831 125.149 31.509 125.011 31.187C124.888 30.8497 124.766 30.52 124.643 30.198C124.52 29.8607 124.405 29.531 124.298 29.209C124.191 28.8717 124.091 28.5497 123.999 28.243L124.804 28.22C124.697 28.5727 124.589 28.91 124.482 29.232C124.375 29.554 124.252 29.8837 124.114 30.221C123.991 30.543 123.861 30.865 123.723 31.187C123.585 31.509 123.447 31.8387 123.309 32.176L119.33 41.1H115.42ZM118.824 38.156L120.066 35.212H128.737L129.565 38.156H118.824Z" fill="currentColor"/>
<path d="M95.4611 41.1V25H98.9571L105.65 34.292L103.304 34.269L110.02 25H113.47V41.1H109.675V35.948C109.675 34.6293 109.706 33.418 109.767 32.314C109.828 31.1947 109.951 30.0677 110.135 28.933L110.526 30.198L105.19 37.19H103.672L98.3591 30.175L98.7961 28.933C98.9801 30.037 99.1027 31.141 99.1641 32.245C99.2254 33.349 99.2561 34.5833 99.2561 35.948V41.1H95.4611Z" fill="currentColor"/>
<path d="M77.2462 41.1V25H85.6411C86.8218 25 87.8491 25.2147 88.7231 25.644C89.5971 26.0733 90.2718 26.679 90.7471 27.461C91.2378 28.2277 91.4831 29.1247 91.4831 30.152C91.4831 31.164 91.2225 32.084 90.7011 32.912C90.1951 33.7247 89.4975 34.361 88.6081 34.821C87.7341 35.281 86.7528 35.511 85.6641 35.511H80.9722V41.1H77.2462ZM87.8031 41.1L82.9271 33.832L86.9751 33.257L92.3111 41.1H87.8031ZM80.9722 32.521H85.2501C85.6948 32.521 86.0858 32.429 86.4231 32.245C86.7758 32.061 87.0518 31.808 87.2511 31.486C87.4658 31.1487 87.5731 30.7653 87.5731 30.336C87.5731 29.9067 87.4581 29.5387 87.2281 29.232C87.0135 28.9253 86.7221 28.6877 86.3541 28.519C85.9861 28.3503 85.5568 28.266 85.0661 28.266H80.9722V32.521Z" fill="currentColor"/>
<path d="M61.7518 41.1V37.719H65.3628V28.381H61.7518V25H72.9068V28.381H69.2728V37.719H72.9068V41.1H61.7518Z" fill="currentColor"/>
<path d="M40.839 41.1V25H44.473L54.708 36.5L54.087 36.385C53.995 35.833 53.926 35.3117 53.88 34.821C53.834 34.315 53.788 33.8243 53.742 33.349C53.7113 32.8737 53.6806 32.406 53.65 31.946C53.6346 31.486 53.627 31.0107 53.627 30.52C53.627 30.0293 53.627 29.5157 53.627 28.979V25H57.422V41.1H53.742L43.139 29.232L44.174 29.393C44.2353 29.8377 44.289 30.2593 44.335 30.658C44.381 31.0413 44.4193 31.4247 44.45 31.808C44.496 32.1913 44.5343 32.5823 44.565 32.981C44.5957 33.3643 44.611 33.786 44.611 34.246C44.6263 34.6907 44.634 35.1813 44.634 35.718V41.1H40.839Z" fill="currentColor"/>
<path d="M25.1846 9.37012V20.7676L32.1104 25V37.4717H34V41.249H0V37.4717H1.88867V18.9238L10.7031 11.9971V0L25.1846 9.37012ZM5.66602 20.7598V37.4717H10.7031V16.8018L5.66602 20.7598ZM14.4814 37.4717H28.333V26.5L21.4072 22.6924V11.4248L14.4814 6.94336V37.4717Z" fill="currentColor"/>
</svg>
